<svg width="29.000000" height="29.000000" viewBox="0 0 29 29" fill="none" xmlns="http://www.w3.org/2000/svg" xmlns:xlink="http://www.w3.org/1999/xlink">
	<desc>
			Created with Pixso.
	</desc>
	<defs/>
	<path d="M17.15 13.52L28.44 2.23C29.18 1.49 29.18 0.3 28.44 -0.43C27.71 -1.17 26.52 -1.17 25.79 -0.43L14.49 10.86L3.2 -0.43C2.47 -1.17 1.28 -1.17 0.55 -0.43C-0.19 0.3 -0.19 1.49 0.55 2.23L11.84 13.52L0.55 24.81C-0.19 25.55 -0.19 26.73 0.55 27.47C0.91 27.83 1.39 28.02 1.87 28.02C2.36 28.02 2.84 27.83 3.2 27.47L14.49 16.17L25.79 27.47C26.15 27.83 26.63 28.02 27.12 28.02C27.6 28.02 28.08 27.83 28.44 27.47C29.18 26.73 29.18 25.55 28.44 24.81L17.15 13.52Z" fill="#000000" fill-opacity="1.000000" fill-rule="nonzero"/>
</svg>
