<svg width="20" height="21" viewBox="0 0 20 21" fill="none" xmlns="http://www.w3.org/2000/svg">
<path d="M0 3.18096L0 18.4191C0 19.7333 1.06667 20.8 2.38095 20.8H17.619C18.9333 20.8 20 19.7333 20 18.4191V3.18096C20 1.86667 18.9333 0.800003 17.619 0.800003H2.38095C1.06667 0.800003 0 1.86667 0 3.18096ZM7.61905 14.6095H16.6667V17.4667H7.61905V14.6095ZM4.98571 17.4667C4.31905 17.4667 3.80952 16.8952 3.80952 16.0381C3.80952 15.181 4.31905 14.6429 4.98571 14.6095C5.65238 14.6095 6.19048 15.1429 6.19048 16.0381C6.19048 16.8952 5.65238 17.4667 4.98571 17.4667ZM16.6667 4.13334V6.99048C16.6667 6.99048 12.2571 6.99048 11.9048 6.99048C10.9524 6.99048 10 7.46667 9.98095 8.65715V8.69524C9.98095 9.84762 10.9619 10.3238 11.9048 10.3238C12.3381 10.3238 16.6667 10.3238 16.6667 10.3238V13.181H7.61905V10.3238H8.8381C8.8381 10.3238 7.61905 9.40477 7.61905 7.55715C7.61905 5.66667 8.91905 4.13334 11.5524 4.13334H16.6667Z" fill="white"/>
</svg>
